<svg width="96" height="51" viewBox="0 0 96 51" fill="none" xmlns="http://www.w3.org/2000/svg">
<path d="M4.78125 19.1797C4.80208 19.9557 4.94792 20.4922 5.21875 20.7891C5.49479 21.0807 5.88802 21.2266 6.39844 21.2266C6.57031 21.2266 6.73698 21.2031 6.89844 21.1562C7.0651 21.1042 7.21875 21.0234 7.35938 20.9141C7.5 20.7995 7.61979 20.651 7.71875 20.4688C7.82292 20.2812 7.89062 20.0469 7.92188 19.7656H10.7656C10.6615 20.4375 10.4688 21 10.1875 21.4531C9.91146 21.9062 9.55469 22.2734 9.11719 22.5547C8.67969 22.8307 8.16927 23.0286 7.58594 23.1484C7.00781 23.2734 6.36198 23.3359 5.64844 23.3359C4.91406 23.3359 4.22396 23.2422 3.57812 23.0547C2.93229 22.8672 2.36458 22.5833 1.875 22.2031C1.39062 21.8177 1.01042 21.3359 0.734375 20.7578C0.458333 20.1745 0.320312 19.4818 0.320312 18.6797C0.320312 17.9141 0.450521 17.2422 0.710938 16.6641C0.971354 16.0859 1.33594 15.6042 1.80469 15.2188C2.27865 14.8281 2.83594 14.5339 3.47656 14.3359C4.1224 14.138 4.83073 14.0391 5.60156 14.0391C6.54948 14.0391 7.36458 14.1641 8.04688 14.4141C8.72917 14.6641 9.28646 15.013 9.71875 15.4609C10.151 15.9089 10.4688 16.4479 10.6719 17.0781C10.875 17.7083 10.9714 18.4089 10.9609 19.1797H4.78125ZM5.9375 16.1484C5.57292 16.1484 5.30208 16.2786 5.125 16.5391C4.95312 16.7943 4.83854 17.2188 4.78125 17.8125H7.07031C7.03906 17.3021 6.92969 16.8984 6.74219 16.6016C6.55469 16.2995 6.28646 16.1484 5.9375 16.1484ZM17.1506 11.4922V19.2578C17.1506 19.6068 17.2366 19.8359 17.4084 19.9453C17.5803 20.0495 17.7991 20.1016 18.0647 20.1016H18.2756V23H11.6975V20.1016H12.0022C12.2782 20.1016 12.4814 20.0156 12.6116 19.8438C12.747 19.6667 12.8147 19.4766 12.8147 19.2734V15.2734C12.8147 14.9714 12.7183 14.75 12.5256 14.6094C12.3381 14.4635 12.1194 14.3906 11.8694 14.3906H11.6975V11.4922H17.1506ZM22.9731 19.1797C22.994 19.9557 23.1398 20.4922 23.4106 20.7891C23.6867 21.0807 24.0799 21.2266 24.5903 21.2266C24.7622 21.2266 24.9289 21.2031 25.0903 21.1562C25.257 21.1042 25.4106 21.0234 25.5513 20.9141C25.6919 20.7995 25.8117 20.651 25.9106 20.4688C26.0148 20.2812 26.0825 20.0469 26.1138 19.7656H28.9575C28.8533 20.4375 28.6606 21 28.3794 21.4531C28.1033 21.9062 27.7466 22.2734 27.3091 22.5547C26.8716 22.8307 26.3611 23.0286 25.7778 23.1484C25.1997 23.2734 24.5539 23.3359 23.8403 23.3359C23.1059 23.3359 22.4158 23.2422 21.77 23.0547C21.1242 22.8672 20.5565 22.5833 20.0669 22.2031C19.5825 21.8177 19.2023 21.3359 18.9263 20.7578C18.6502 20.1745 18.5122 19.4818 18.5122 18.6797C18.5122 17.9141 18.6424 17.2422 18.9028 16.6641C19.1632 16.0859 19.5278 15.6042 19.9966 15.2188C20.4705 14.8281 21.0278 14.5339 21.6684 14.3359C22.3143 14.138 23.0226 14.0391 23.7934 14.0391C24.7414 14.0391 25.5565 14.1641 26.2388 14.4141C26.921 14.6641 27.4783 15.013 27.9106 15.4609C28.3429 15.9089 28.6606 16.4479 28.8638 17.0781C29.0669 17.7083 29.1632 18.4089 29.1528 19.1797H22.9731ZM24.1294 16.1484C23.7648 16.1484 23.494 16.2786 23.3169 16.5391C23.145 16.7943 23.0304 17.2188 22.9731 17.8125H25.2622C25.2309 17.3021 25.1216 16.8984 24.9341 16.6016C24.7466 16.2995 24.4783 16.1484 24.1294 16.1484ZM29.5691 18.6797C29.5691 17.9141 29.7019 17.2422 29.9675 16.6641C30.2331 16.0859 30.6107 15.6042 31.1003 15.2188C31.5951 14.8281 32.1889 14.5339 32.8816 14.3359C33.5743 14.138 34.3477 14.0391 35.2019 14.0391C36.056 14.0391 36.8295 14.138 37.5222 14.3359C38.2149 14.5339 38.806 14.8281 39.2956 15.2188C39.7852 15.6042 40.1628 16.0859 40.4284 16.6641C40.6993 17.2422 40.8347 17.9141 40.8347 18.6797C40.8347 19.4349 40.6993 20.1042 40.4284 20.6875C40.1628 21.2708 39.7852 21.7604 39.2956 22.1562C38.806 22.5469 38.2149 22.8411 37.5222 23.0391C36.8295 23.237 36.056 23.3359 35.2019 23.3359C34.3477 23.3359 33.5743 23.237 32.8816 23.0391C32.1889 22.8411 31.5951 22.5469 31.1003 22.1562C30.6107 21.7604 30.2331 21.2708 29.9675 20.6875C29.7019 20.1042 29.5691 19.4349 29.5691 18.6797ZM34.0144 18.6797C34.0144 19.1172 34.0326 19.4896 34.0691 19.7969C34.1107 20.099 34.1758 20.3438 34.2644 20.5312C34.3529 20.7135 34.4727 20.849 34.6238 20.9375C34.7748 21.0208 34.9675 21.0625 35.2019 21.0625C35.4363 21.0625 35.6264 21.0208 35.7722 20.9375C35.9232 20.849 36.043 20.7135 36.1316 20.5312C36.2253 20.3438 36.2904 20.099 36.3269 19.7969C36.3633 19.4896 36.3816 19.1172 36.3816 18.6797C36.3816 17.8047 36.2982 17.1927 36.1316 16.8438C35.9701 16.4896 35.6602 16.3125 35.2019 16.3125C34.9675 16.3125 34.7748 16.3542 34.6238 16.4375C34.4727 16.5156 34.3529 16.6484 34.2644 16.8359C34.1758 17.0182 34.1107 17.263 34.0691 17.5703C34.0326 17.8724 34.0144 18.2422 34.0144 18.6797ZM48.7588 18.0078C48.7588 17.8047 48.7327 17.6432 48.6806 17.5234C48.6338 17.3984 48.5713 17.3047 48.4931 17.2422C48.4202 17.1745 48.3369 17.1302 48.2431 17.1094C48.1494 17.0885 48.0582 17.0781 47.9697 17.0781C47.6311 17.0781 47.3785 17.1771 47.2119 17.375C47.0452 17.5729 46.9619 17.8542 46.9619 18.2188V19.3359C46.9619 19.612 47.0088 19.8099 47.1025 19.9297C47.2015 20.0443 47.389 20.1016 47.665 20.1016H48.0869V23H41.5556V20.1016H42.0166C42.2301 20.1016 42.3916 20.0339 42.5009 19.8984C42.6155 19.7578 42.6728 19.5911 42.6728 19.3984V17.9141C42.6728 17.6693 42.5999 17.5052 42.4541 17.4219C42.3134 17.3333 42.152 17.2891 41.9697 17.2891H41.5556V14.3906H46.1963L46.0322 16.5391H46.165C46.2796 15.737 46.6311 15.1198 47.2197 14.6875C47.8082 14.2552 48.6077 14.0391 49.6181 14.0391C50.3317 14.0391 50.9124 14.1406 51.3603 14.3438C51.8082 14.5469 52.1546 14.8047 52.3994 15.1172C52.6494 15.4245 52.8186 15.7604 52.9072 16.125C52.9957 16.4844 53.04 16.8229 53.04 17.1406V19.3359C53.04 19.612 53.0869 19.8099 53.1806 19.9297C53.2796 20.0443 53.4671 20.1016 53.7431 20.1016H54.165V23H48.7588V18.0078ZM54.4016 18.6797C54.4016 17.9141 54.5344 17.2422 54.8 16.6641C55.0656 16.0859 55.4432 15.6042 55.9328 15.2188C56.4276 14.8281 57.0214 14.5339 57.7141 14.3359C58.4068 14.138 59.1802 14.0391 60.0344 14.0391C60.8885 14.0391 61.662 14.138 62.3547 14.3359C63.0474 14.5339 63.6385 14.8281 64.1281 15.2188C64.6177 15.6042 64.9953 16.0859 65.2609 16.6641C65.5318 17.2422 65.6672 17.9141 65.6672 18.6797C65.6672 19.4349 65.5318 20.1042 65.2609 20.6875C64.9953 21.2708 64.6177 21.7604 64.1281 22.1562C63.6385 22.5469 63.0474 22.8411 62.3547 23.0391C61.662 23.237 60.8885 23.3359 60.0344 23.3359C59.1802 23.3359 58.4068 23.237 57.7141 23.0391C57.0214 22.8411 56.4276 22.5469 55.9328 22.1562C55.4432 21.7604 55.0656 21.2708 54.8 20.6875C54.5344 20.1042 54.4016 19.4349 54.4016 18.6797ZM58.8469 18.6797C58.8469 19.1172 58.8651 19.4896 58.9016 19.7969C58.9432 20.099 59.0083 20.3438 59.0969 20.5312C59.1854 20.7135 59.3052 20.849 59.4562 20.9375C59.6073 21.0208 59.8 21.0625 60.0344 21.0625C60.2687 21.0625 60.4589 21.0208 60.6047 20.9375C60.7557 20.849 60.8755 20.7135 60.9641 20.5312C61.0578 20.3438 61.1229 20.099 61.1594 19.7969C61.1958 19.4896 61.2141 19.1172 61.2141 18.6797C61.2141 17.8047 61.1307 17.1927 60.9641 16.8438C60.8026 16.4896 60.4927 16.3125 60.0344 16.3125C59.8 16.3125 59.6073 16.3542 59.4562 16.4375C59.3052 16.5156 59.1854 16.6484 59.0969 16.8359C59.0083 17.0182 58.9432 17.263 58.9016 17.5703C58.8651 17.8724 58.8469 18.2422 58.8469 18.6797ZM71.0287 14.3906L70.8959 16.5391H71.0287C71.211 15.7161 71.5131 15.0938 71.935 14.6719C72.3621 14.25 72.9142 14.0391 73.5912 14.0391C73.9923 14.0391 74.336 14.1042 74.6225 14.2344C74.9142 14.3594 75.1485 14.5286 75.3256 14.7422C75.5027 14.9557 75.6303 15.2031 75.7084 15.4844C75.7866 15.7604 75.8256 16.0469 75.8256 16.3438C75.8256 16.5885 75.7892 16.8307 75.7162 17.0703C75.6433 17.3099 75.5261 17.526 75.3647 17.7188C75.2032 17.9115 74.9949 18.0677 74.7397 18.1875C74.4845 18.3021 74.1694 18.3594 73.7944 18.3594C73.2735 18.3594 72.8621 18.2266 72.56 17.9609C72.2631 17.6953 72.1147 17.375 72.1147 17C72.1147 16.8177 72.1355 16.6641 72.1772 16.5391C72.2189 16.4089 72.2605 16.3047 72.3022 16.2266C72.3491 16.1432 72.3803 16.0833 72.3959 16.0469C72.4116 16.0104 72.3933 15.9922 72.3412 15.9922C72.2319 15.9922 72.1121 16.1172 71.9819 16.3672C71.8569 16.6172 71.7944 17.0104 71.7944 17.5469V19.3359C71.7944 19.612 71.8412 19.8099 71.935 19.9297C72.034 20.0443 72.2215 20.1016 72.4975 20.1016H72.9662V23H66.3881V20.1016H66.8491C67.0626 20.1016 67.2241 20.0339 67.3334 19.8984C67.448 19.7578 67.5053 19.5911 67.5053 19.3984V17.9141C67.5053 17.6693 67.4324 17.5052 67.2866 17.4219C67.1459 17.3333 66.9845 17.2891 66.8022 17.2891H66.3881V14.3906H71.0287ZM79.9684 15.4766C79.7028 15.4766 79.4736 15.4974 79.2809 15.5391C79.0934 15.5755 78.932 15.6198 78.7966 15.6719C78.6611 15.724 78.5492 15.7839 78.4606 15.8516C78.3721 15.9141 78.294 15.9714 78.2262 16.0234L78.3044 16.1016C78.4033 16.0495 78.5101 15.9974 78.6247 15.9453C78.7445 15.8932 78.8955 15.8672 79.0778 15.8672C79.3851 15.8672 79.6507 15.9688 79.8747 16.1719C80.0986 16.3698 80.2106 16.6875 80.2106 17.125C80.2106 17.5417 80.0387 17.8776 79.695 18.1328C79.3565 18.3828 78.9007 18.5078 78.3278 18.5078C77.7809 18.5078 77.3434 18.3516 77.0153 18.0391C76.6924 17.7214 76.5309 17.2734 76.5309 16.6953C76.5309 16.3776 76.6195 16.0625 76.7966 15.75C76.9736 15.4323 77.2471 15.1484 77.6169 14.8984C77.9919 14.6484 78.4658 14.4427 79.0387 14.2812C79.6169 14.1198 80.3122 14.0391 81.1247 14.0391C82.0934 14.0391 82.8851 14.1302 83.4997 14.3125C84.1143 14.4948 84.5908 14.7292 84.9294 15.0156C85.2731 15.3021 85.5075 15.6276 85.6325 15.9922C85.7627 16.3568 85.8278 16.724 85.8278 17.0938V20.1484C85.8278 20.6224 85.8434 20.9453 85.8747 21.1172C85.9059 21.2839 86.0231 21.3672 86.2262 21.3672C86.3877 21.3672 86.4997 21.2917 86.5622 21.1406C86.6299 20.9844 86.6637 20.7188 86.6637 20.3438V19.3672H87.5544V20.3594C87.5544 20.8281 87.5153 21.2448 87.4372 21.6094C87.3591 21.9688 87.2106 22.2786 86.9919 22.5391C86.7731 22.7943 86.4762 22.987 86.1012 23.1172C85.7262 23.2526 85.2471 23.3203 84.6637 23.3203C84.1377 23.3203 83.7002 23.263 83.3512 23.1484C83.0075 23.0391 82.7341 22.901 82.5309 22.7344C82.3278 22.5677 82.182 22.3958 82.0934 22.2188C82.0101 22.0365 81.9684 21.875 81.9684 21.7344H81.8434C81.8122 21.9479 81.721 22.151 81.57 22.3438C81.4242 22.5365 81.2184 22.7083 80.9528 22.8594C80.6924 23.0052 80.3773 23.1224 80.0075 23.2109C79.6429 23.3047 79.2262 23.3516 78.7575 23.3516C78.3096 23.3516 77.9007 23.3073 77.5309 23.2188C77.1664 23.1354 76.8539 23.0026 76.5934 22.8203C76.3382 22.6328 76.1377 22.3932 75.9919 22.1016C75.8512 21.8047 75.7809 21.4531 75.7809 21.0469C75.7809 20.5469 75.9216 20.1536 76.2028 19.8672C76.4841 19.5755 76.8382 19.3464 77.2653 19.1797C77.6924 19.0078 78.1559 18.8698 78.6559 18.7656C79.1611 18.6562 79.6273 18.526 80.0544 18.375C80.4815 18.224 80.8356 18.0286 81.1169 17.7891C81.3981 17.5495 81.5387 17.2109 81.5387 16.7734C81.5387 16.3828 81.4164 16.0703 81.1716 15.8359C80.9268 15.5964 80.5257 15.4766 79.9684 15.4766ZM81.5387 18.8594C81.4242 19.026 81.2809 19.1615 81.1091 19.2656C80.9372 19.3646 80.7705 19.4635 80.6091 19.5625C80.4528 19.6562 80.3148 19.7708 80.195 19.9062C80.0804 20.0365 80.0231 20.2135 80.0231 20.4375C80.0231 20.6094 80.07 20.7656 80.1637 20.9062C80.2575 21.0417 80.4398 21.1094 80.7106 21.1094C80.9554 21.1094 81.1533 21.0156 81.3044 20.8281C81.4606 20.6354 81.5387 20.3672 81.5387 20.0234V18.8594ZM87.83 21.3516C87.83 21.0859 87.8821 20.8307 87.9863 20.5859C88.0956 20.3411 88.2363 20.1302 88.4081 19.9531C88.5852 19.776 88.7935 19.6354 89.0331 19.5312C89.2779 19.4219 89.5383 19.3672 89.8144 19.3672C90.08 19.3672 90.3352 19.4219 90.58 19.5312C90.8248 19.6354 91.0357 19.776 91.2128 19.9531C91.3899 20.1302 91.5305 20.3411 91.6347 20.5859C91.7441 20.8307 91.7988 21.0859 91.7988 21.3516C91.7988 21.6276 91.7441 21.8854 91.6347 22.125C91.5305 22.3646 91.3899 22.5729 91.2128 22.75C91.0357 22.9271 90.8248 23.0677 90.58 23.1719C90.3352 23.2812 90.08 23.3359 89.8144 23.3359C89.5383 23.3359 89.2779 23.2812 89.0331 23.1719C88.7935 23.0677 88.5852 22.9271 88.4081 22.75C88.2363 22.5729 88.0956 22.3646 87.9863 22.125C87.8821 21.8854 87.83 21.6276 87.83 21.3516Z" fill="#F9F6F4"/>
<path d="M0 25H91" stroke="#F9F6F4"/>
<path d="M36.25 27.4922V35.4609C36.25 35.6745 36.3073 35.8359 36.4219 35.9453C36.5417 36.0495 36.7083 36.1016 36.9219 36.1016H37.3672V39H32.1172V37.5781H31.9922C31.9089 37.8021 31.7865 38.0156 31.625 38.2188C31.4635 38.4219 31.2656 38.6016 31.0312 38.7578C30.7969 38.9089 30.5182 39.0286 30.1953 39.1172C29.8776 39.2109 29.5156 39.2578 29.1094 39.2578C27.8333 39.2578 26.8672 38.8724 26.2109 38.1016C25.5547 37.3255 25.2266 36.1901 25.2266 34.6953C25.2266 33.2005 25.5781 32.0911 26.2812 31.3672C26.9844 30.6432 27.9505 30.2812 29.1797 30.2812C29.5078 30.2812 29.8021 30.3073 30.0625 30.3594C30.3229 30.4115 30.5599 30.4792 30.7734 30.5625C30.987 30.6406 31.1901 30.7318 31.3828 30.8359C31.5755 30.9349 31.7682 31.0312 31.9609 31.125V30.8438C31.9609 30.5625 31.9115 30.3646 31.8125 30.25C31.7188 30.1302 31.5339 30.0703 31.2578 30.0703H30.8438V27.4922H36.25ZM29.6719 34.7734C29.6719 35.0547 29.6875 35.3203 29.7188 35.5703C29.75 35.8203 29.8073 36.0391 29.8906 36.2266C29.9792 36.4141 30.0938 36.5599 30.2344 36.6641C30.3802 36.7682 30.5703 36.8203 30.8047 36.8203C31.0391 36.8203 31.2318 36.7708 31.3828 36.6719C31.5339 36.5729 31.651 36.4349 31.7344 36.2578C31.8229 36.0807 31.8828 35.8698 31.9141 35.625C31.9453 35.3802 31.9609 35.1198 31.9609 34.8438V33.0781C31.8307 32.9531 31.6562 32.849 31.4375 32.7656C31.2188 32.6771 31.0078 32.6328 30.8047 32.6328C30.5703 32.6328 30.3802 32.6927 30.2344 32.8125C30.0938 32.9271 29.9792 33.0833 29.8906 33.2812C29.8073 33.4792 29.75 33.7083 29.7188 33.9688C29.6875 34.2292 29.6719 34.4974 29.6719 34.7734ZM42.3069 35.1797C42.3277 35.9557 42.4735 36.4922 42.7444 36.7891C43.0204 37.0807 43.4136 37.2266 43.9241 37.2266C44.0959 37.2266 44.2626 37.2031 44.4241 37.1562C44.5907 37.1042 44.7444 37.0234 44.885 36.9141C45.0256 36.7995 45.1454 36.651 45.2444 36.4688C45.3485 36.2812 45.4163 36.0469 45.4475 35.7656H48.2913C48.1871 36.4375 47.9944 37 47.7131 37.4531C47.4371 37.9062 47.0803 38.2734 46.6428 38.5547C46.2053 38.8307 45.6949 39.0286 45.1116 39.1484C44.5334 39.2734 43.8876 39.3359 43.1741 39.3359C42.4397 39.3359 41.7496 39.2422 41.1038 39.0547C40.4579 38.8672 39.8902 38.5833 39.4006 38.2031C38.9163 37.8177 38.536 37.3359 38.26 36.7578C37.984 36.1745 37.8459 35.4818 37.8459 34.6797C37.8459 33.9141 37.9761 33.2422 38.2366 32.6641C38.497 32.0859 38.8616 31.6042 39.3303 31.2188C39.8043 30.8281 40.3616 30.5339 41.0022 30.3359C41.648 30.138 42.3564 30.0391 43.1272 30.0391C44.0751 30.0391 44.8902 30.1641 45.5725 30.4141C46.2548 30.6641 46.8121 31.013 47.2444 31.4609C47.6767 31.9089 47.9944 32.4479 48.1975 33.0781C48.4006 33.7083 48.497 34.4089 48.4866 35.1797H42.3069ZM43.4631 32.1484C43.0985 32.1484 42.8277 32.2786 42.6506 32.5391C42.4788 32.7943 42.3642 33.2188 42.3069 33.8125H44.5959C44.5647 33.3021 44.4553 32.8984 44.2678 32.6016C44.0803 32.2995 43.8121 32.1484 43.4631 32.1484ZM58.0903 33.2422H55.9419C55.7908 32.8672 55.5565 32.5703 55.2388 32.3516C54.921 32.1328 54.5903 32.0234 54.2466 32.0234C54.0122 32.0234 53.8247 32.0677 53.6841 32.1562C53.5486 32.2396 53.4809 32.3672 53.4809 32.5391C53.4809 32.7526 53.6007 32.9141 53.8403 33.0234C54.0799 33.1276 54.3794 33.2214 54.7388 33.3047C55.1033 33.388 55.4966 33.4896 55.9184 33.6094C56.3403 33.724 56.7309 33.8906 57.0903 34.1094C57.4549 34.3281 57.757 34.6224 57.9966 34.9922C58.2361 35.362 58.3559 35.849 58.3559 36.4531C58.3559 36.9219 58.2518 37.3307 58.0434 37.6797C57.8351 38.0286 57.5486 38.3151 57.1841 38.5391C56.8247 38.763 56.4002 38.9297 55.9106 39.0391C55.421 39.1536 54.8924 39.2109 54.3247 39.2109C53.7726 39.2109 53.2492 39.1562 52.7544 39.0469C52.2648 38.9427 51.796 38.763 51.3481 38.5078L51.27 39.0469H49.2075V35.9141H51.3481C51.5513 36.3307 51.8065 36.6536 52.1138 36.8828C52.4263 37.112 52.77 37.2266 53.145 37.2266C53.4315 37.2266 53.6346 37.1745 53.7544 37.0703C53.8794 36.9609 53.9419 36.8411 53.9419 36.7109C53.9419 36.4974 53.8221 36.3333 53.5825 36.2188C53.3429 36.099 53.046 35.9948 52.6919 35.9062C52.3429 35.8125 51.9575 35.7109 51.5356 35.6016C51.1138 35.487 50.7257 35.3229 50.3716 35.1094C50.0226 34.8958 49.7283 34.6094 49.4888 34.25C49.2492 33.8854 49.1294 33.4089 49.1294 32.8203C49.1294 32.3984 49.2231 32.013 49.4106 31.6641C49.6033 31.3151 49.8768 31.0208 50.2309 30.7812C50.5851 30.5417 51.0018 30.3594 51.4809 30.2344C51.9601 30.1042 52.4861 30.0391 53.0591 30.0391C53.6997 30.0391 54.2752 30.112 54.7856 30.2578C55.3013 30.3984 55.6867 30.5547 55.9419 30.7266L56.02 30.1719H58.0903V33.2422ZM64.6394 30.3906V35.2578C64.6394 35.6068 64.7253 35.8359 64.8972 35.9453C65.0691 36.0495 65.2878 36.1016 65.5534 36.1016H65.7644V39H59.1862V36.1016H59.4909C59.767 36.1016 59.9701 36.0156 60.1003 35.8438C60.2357 35.6667 60.3034 35.4766 60.3034 35.2734V34.1719C60.3034 33.8698 60.2071 33.6484 60.0144 33.5078C59.8269 33.362 59.6081 33.2891 59.3581 33.2891H59.1862V30.3906H64.6394ZM60.1784 28.4688C60.1784 28.0208 60.3477 27.638 60.6862 27.3203C61.03 27.0026 61.517 26.8438 62.1472 26.8438C62.7878 26.8438 63.28 27.0026 63.6237 27.3203C63.9727 27.638 64.1472 28.0208 64.1472 28.4688C64.1472 28.9271 63.9727 29.3151 63.6237 29.6328C63.28 29.9453 62.7878 30.1016 62.1472 30.1016C61.517 30.1016 61.03 29.9453 60.6862 29.6328C60.3477 29.3151 60.1784 28.9271 60.1784 28.4688ZM77.4697 40.4219C77.4697 41.3073 76.9593 41.9844 75.9384 42.4531C74.9228 42.9219 73.4515 43.1562 71.5244 43.1562C70.8265 43.1562 70.1468 43.1458 69.4853 43.125C68.8239 43.1042 68.2379 43.0339 67.7275 42.9141C67.2171 42.7995 66.8056 42.6146 66.4931 42.3594C66.1858 42.1042 66.0322 41.7422 66.0322 41.2734C66.0322 40.8984 66.152 40.5911 66.3916 40.3516C66.6311 40.112 66.889 39.9219 67.165 39.7812C66.8265 39.5781 66.5947 39.3516 66.4697 39.1016C66.3499 38.8516 66.29 38.5781 66.29 38.2812C66.29 37.9271 66.4176 37.5885 66.6728 37.2656C66.928 36.9375 67.2952 36.6198 67.7744 36.3125C67.3056 36.0052 66.9463 35.6302 66.6963 35.1875C66.4463 34.7448 66.3213 34.2188 66.3213 33.6094C66.3213 33.0208 66.4436 32.5052 66.6884 32.0625C66.9332 31.6198 67.2848 31.25 67.7431 30.9531C68.2015 30.6562 68.7483 30.4297 69.3838 30.2734C70.0192 30.1172 70.7327 30.0391 71.5244 30.0391C72.3733 30.0391 73.139 30.1302 73.8213 30.3125C74.5088 30.4948 75.0921 30.7708 75.5713 31.1406C75.665 31.0156 75.7926 30.8932 75.9541 30.7734C76.0895 30.6797 76.2614 30.5938 76.4697 30.5156C76.678 30.4323 76.9332 30.3906 77.2353 30.3906H77.9541V33.2891H77.4384C77.2145 33.2891 77.0426 33.3516 76.9228 33.4766C76.8082 33.5964 76.7405 33.7135 76.7197 33.8281C76.5374 34.9271 76.0061 35.7656 75.1259 36.3438C74.2457 36.9219 73.0452 37.2109 71.5244 37.2109C70.6702 37.2109 69.8968 37.1198 69.2041 36.9375C69.0947 37.0104 69.04 37.1016 69.04 37.2109C69.04 37.4141 69.1598 37.5573 69.3994 37.6406C69.639 37.724 69.9567 37.7812 70.3525 37.8125C70.7483 37.8385 71.1989 37.849 71.7041 37.8438C72.2093 37.8333 72.7249 37.8411 73.2509 37.8672C73.7822 37.888 74.3004 37.9349 74.8056 38.0078C75.316 38.0807 75.7666 38.2109 76.1572 38.3984C76.553 38.5859 76.8707 38.8411 77.1103 39.1641C77.3499 39.4922 77.4697 39.9115 77.4697 40.4219ZM70.4306 33.6094C70.4306 34.151 70.5061 34.5703 70.6572 34.8672C70.8082 35.1589 71.0973 35.3047 71.5244 35.3047C71.9567 35.3047 72.2483 35.1589 72.3994 34.8672C72.5504 34.5703 72.6259 34.151 72.6259 33.6094C72.6259 33.0729 72.5504 32.6641 72.3994 32.3828C72.2483 32.1016 71.9567 31.9609 71.5244 31.9609C71.0973 31.9609 70.8082 32.1016 70.6572 32.3828C70.5061 32.6641 70.4306 33.0729 70.4306 33.6094ZM71.8759 40.5391C71.3186 40.5391 70.8134 40.5234 70.3603 40.4922C69.9072 40.4661 69.4983 40.4271 69.1338 40.375C69.0817 40.4635 69.0556 40.5547 69.0556 40.6484C69.0556 41.0234 69.2588 41.2682 69.665 41.3828C70.0713 41.5026 70.6051 41.5625 71.2666 41.5625C72.152 41.5625 72.7978 41.5078 73.2041 41.3984C73.6155 41.2943 73.8213 41.1458 73.8213 40.9531C73.8213 40.8542 73.7614 40.7786 73.6416 40.7266C73.527 40.6745 73.3733 40.6328 73.1806 40.6016C72.9931 40.5703 72.7848 40.5521 72.5556 40.5469C72.3265 40.5417 72.0999 40.5391 71.8759 40.5391ZM85.7219 34.0078C85.7219 33.8047 85.6958 33.6432 85.6437 33.5234C85.5969 33.3984 85.5344 33.3047 85.4562 33.2422C85.3833 33.1745 85.3 33.1302 85.2062 33.1094C85.1125 33.0885 85.0214 33.0781 84.9328 33.0781C84.5943 33.0781 84.3417 33.1771 84.175 33.375C84.0083 33.5729 83.925 33.8542 83.925 34.2188V35.3359C83.925 35.612 83.9719 35.8099 84.0656 35.9297C84.1646 36.0443 84.3521 36.1016 84.6281 36.1016H85.05V39H78.5187V36.1016H78.9797C79.1932 36.1016 79.3547 36.0339 79.4641 35.8984C79.5786 35.7578 79.6359 35.5911 79.6359 35.3984V33.9141C79.6359 33.6693 79.563 33.5052 79.4172 33.4219C79.2766 33.3333 79.1151 33.2891 78.9328 33.2891H78.5187V30.3906H83.1594L82.9953 32.5391H83.1281C83.2427 31.737 83.5943 31.1198 84.1828 30.6875C84.7714 30.2552 85.5708 30.0391 86.5812 30.0391C87.2948 30.0391 87.8755 30.1406 88.3234 30.3438C88.7714 30.5469 89.1177 30.8047 89.3625 31.1172C89.6125 31.4245 89.7818 31.7604 89.8703 32.125C89.9589 32.4844 90.0031 32.8229 90.0031 33.1406V35.3359C90.0031 35.612 90.05 35.8099 90.1437 35.9297C90.2427 36.0443 90.4302 36.1016 90.7062 36.1016H91.1281V39H85.7219V34.0078Z" fill="#F9F6F4"/>
<path d="M78.5 41H91.1" stroke="#F9F6F4"/>
<path d="M25.5 41L65 41" stroke="#F9F6F4"/>
</svg>
