<svg width="162" height="32" viewBox="0 0 162 32" fill="none" xmlns="http://www.w3.org/2000/svg">
<path d="M4.78125 19.1797C4.80208 19.9557 4.94792 20.4922 5.21875 20.7891C5.49479 21.0807 5.88802 21.2266 6.39844 21.2266C6.57031 21.2266 6.73698 21.2031 6.89844 21.1562C7.0651 21.1042 7.21875 21.0234 7.35938 20.9141C7.5 20.7995 7.61979 20.651 7.71875 20.4688C7.82292 20.2812 7.89062 20.0469 7.92188 19.7656H10.7656C10.6615 20.4375 10.4688 21 10.1875 21.4531C9.91146 21.9062 9.55469 22.2734 9.11719 22.5547C8.67969 22.8307 8.16927 23.0286 7.58594 23.1484C7.00781 23.2734 6.36198 23.3359 5.64844 23.3359C4.91406 23.3359 4.22396 23.2422 3.57812 23.0547C2.93229 22.8672 2.36458 22.5833 1.875 22.2031C1.39062 21.8177 1.01042 21.3359 0.734375 20.7578C0.458333 20.1745 0.320312 19.4818 0.320312 18.6797C0.320312 17.9141 0.450521 17.2422 0.710938 16.6641C0.971354 16.0859 1.33594 15.6042 1.80469 15.2188C2.27865 14.8281 2.83594 14.5339 3.47656 14.3359C4.1224 14.138 4.83073 14.0391 5.60156 14.0391C6.54948 14.0391 7.36458 14.1641 8.04688 14.4141C8.72917 14.6641 9.28646 15.013 9.71875 15.4609C10.151 15.9089 10.4688 16.4479 10.6719 17.0781C10.875 17.7083 10.9714 18.4089 10.9609 19.1797H4.78125ZM5.9375 16.1484C5.57292 16.1484 5.30208 16.2786 5.125 16.5391C4.95312 16.7943 4.83854 17.2188 4.78125 17.8125H7.07031C7.03906 17.3021 6.92969 16.8984 6.74219 16.6016C6.55469 16.2995 6.28646 16.1484 5.9375 16.1484ZM17.1506 11.4922V19.2578C17.1506 19.6068 17.2366 19.8359 17.4084 19.9453C17.5803 20.0495 17.7991 20.1016 18.0647 20.1016H18.2756V23H11.6975V20.1016H12.0022C12.2782 20.1016 12.4814 20.0156 12.6116 19.8438C12.747 19.6667 12.8147 19.4766 12.8147 19.2734V15.2734C12.8147 14.9714 12.7183 14.75 12.5256 14.6094C12.3381 14.4635 12.1194 14.3906 11.8694 14.3906H11.6975V11.4922H17.1506ZM22.9731 19.1797C22.994 19.9557 23.1398 20.4922 23.4106 20.7891C23.6867 21.0807 24.0799 21.2266 24.5903 21.2266C24.7622 21.2266 24.9289 21.2031 25.0903 21.1562C25.257 21.1042 25.4106 21.0234 25.5513 20.9141C25.6919 20.7995 25.8117 20.651 25.9106 20.4688C26.0148 20.2812 26.0825 20.0469 26.1138 19.7656H28.9575C28.8533 20.4375 28.6606 21 28.3794 21.4531C28.1033 21.9062 27.7466 22.2734 27.3091 22.5547C26.8716 22.8307 26.3611 23.0286 25.7778 23.1484C25.1997 23.2734 24.5539 23.3359 23.8403 23.3359C23.1059 23.3359 22.4158 23.2422 21.77 23.0547C21.1242 22.8672 20.5565 22.5833 20.0669 22.2031C19.5825 21.8177 19.2023 21.3359 18.9263 20.7578C18.6502 20.1745 18.5122 19.4818 18.5122 18.6797C18.5122 17.9141 18.6424 17.2422 18.9028 16.6641C19.1632 16.0859 19.5278 15.6042 19.9966 15.2188C20.4705 14.8281 21.0278 14.5339 21.6684 14.3359C22.3143 14.138 23.0226 14.0391 23.7934 14.0391C24.7414 14.0391 25.5565 14.1641 26.2388 14.4141C26.921 14.6641 27.4783 15.013 27.9106 15.4609C28.3429 15.9089 28.6606 16.4479 28.8638 17.0781C29.0669 17.7083 29.1632 18.4089 29.1528 19.1797H22.9731ZM24.1294 16.1484C23.7648 16.1484 23.494 16.2786 23.3169 16.5391C23.145 16.7943 23.0304 17.2188 22.9731 17.8125H25.2622C25.2309 17.3021 25.1216 16.8984 24.9341 16.6016C24.7466 16.2995 24.4783 16.1484 24.1294 16.1484ZM29.5691 18.6797C29.5691 17.9141 29.7019 17.2422 29.9675 16.6641C30.2331 16.0859 30.6107 15.6042 31.1003 15.2188C31.5951 14.8281 32.1889 14.5339 32.8816 14.3359C33.5743 14.138 34.3477 14.0391 35.2019 14.0391C36.056 14.0391 36.8295 14.138 37.5222 14.3359C38.2149 14.5339 38.806 14.8281 39.2956 15.2188C39.7852 15.6042 40.1628 16.0859 40.4284 16.6641C40.6993 17.2422 40.8347 17.9141 40.8347 18.6797C40.8347 19.4349 40.6993 20.1042 40.4284 20.6875C40.1628 21.2708 39.7852 21.7604 39.2956 22.1562C38.806 22.5469 38.2149 22.8411 37.5222 23.0391C36.8295 23.237 36.056 23.3359 35.2019 23.3359C34.3477 23.3359 33.5743 23.237 32.8816 23.0391C32.1889 22.8411 31.5951 22.5469 31.1003 22.1562C30.6107 21.7604 30.2331 21.2708 29.9675 20.6875C29.7019 20.1042 29.5691 19.4349 29.5691 18.6797ZM34.0144 18.6797C34.0144 19.1172 34.0326 19.4896 34.0691 19.7969C34.1107 20.099 34.1758 20.3438 34.2644 20.5312C34.3529 20.7135 34.4727 20.849 34.6238 20.9375C34.7748 21.0208 34.9675 21.0625 35.2019 21.0625C35.4363 21.0625 35.6264 21.0208 35.7722 20.9375C35.9232 20.849 36.043 20.7135 36.1316 20.5312C36.2253 20.3438 36.2904 20.099 36.3269 19.7969C36.3633 19.4896 36.3816 19.1172 36.3816 18.6797C36.3816 17.8047 36.2982 17.1927 36.1316 16.8438C35.9701 16.4896 35.6602 16.3125 35.2019 16.3125C34.9675 16.3125 34.7748 16.3542 34.6238 16.4375C34.4727 16.5156 34.3529 16.6484 34.2644 16.8359C34.1758 17.0182 34.1107 17.263 34.0691 17.5703C34.0326 17.8724 34.0144 18.2422 34.0144 18.6797ZM48.7588 18.0078C48.7588 17.8047 48.7327 17.6432 48.6806 17.5234C48.6338 17.3984 48.5713 17.3047 48.4931 17.2422C48.4202 17.1745 48.3369 17.1302 48.2431 17.1094C48.1494 17.0885 48.0582 17.0781 47.9697 17.0781C47.6311 17.0781 47.3785 17.1771 47.2119 17.375C47.0452 17.5729 46.9619 17.8542 46.9619 18.2188V19.3359C46.9619 19.612 47.0088 19.8099 47.1025 19.9297C47.2015 20.0443 47.389 20.1016 47.665 20.1016H48.0869V23H41.5556V20.1016H42.0166C42.2301 20.1016 42.3916 20.0339 42.5009 19.8984C42.6155 19.7578 42.6728 19.5911 42.6728 19.3984V17.9141C42.6728 17.6693 42.5999 17.5052 42.4541 17.4219C42.3134 17.3333 42.152 17.2891 41.9697 17.2891H41.5556V14.3906H46.1963L46.0322 16.5391H46.165C46.2796 15.737 46.6311 15.1198 47.2197 14.6875C47.8082 14.2552 48.6077 14.0391 49.6181 14.0391C50.3317 14.0391 50.9124 14.1406 51.3603 14.3438C51.8082 14.5469 52.1546 14.8047 52.3994 15.1172C52.6494 15.4245 52.8186 15.7604 52.9072 16.125C52.9957 16.4844 53.04 16.8229 53.04 17.1406V19.3359C53.04 19.612 53.0869 19.8099 53.1806 19.9297C53.2796 20.0443 53.4671 20.1016 53.7431 20.1016H54.165V23H48.7588V18.0078ZM54.4016 18.6797C54.4016 17.9141 54.5344 17.2422 54.8 16.6641C55.0656 16.0859 55.4432 15.6042 55.9328 15.2188C56.4276 14.8281 57.0214 14.5339 57.7141 14.3359C58.4068 14.138 59.1802 14.0391 60.0344 14.0391C60.8885 14.0391 61.662 14.138 62.3547 14.3359C63.0474 14.5339 63.6385 14.8281 64.1281 15.2188C64.6177 15.6042 64.9953 16.0859 65.2609 16.6641C65.5318 17.2422 65.6672 17.9141 65.6672 18.6797C65.6672 19.4349 65.5318 20.1042 65.2609 20.6875C64.9953 21.2708 64.6177 21.7604 64.1281 22.1562C63.6385 22.5469 63.0474 22.8411 62.3547 23.0391C61.662 23.237 60.8885 23.3359 60.0344 23.3359C59.1802 23.3359 58.4068 23.237 57.7141 23.0391C57.0214 22.8411 56.4276 22.5469 55.9328 22.1562C55.4432 21.7604 55.0656 21.2708 54.8 20.6875C54.5344 20.1042 54.4016 19.4349 54.4016 18.6797ZM58.8469 18.6797C58.8469 19.1172 58.8651 19.4896 58.9016 19.7969C58.9432 20.099 59.0083 20.3438 59.0969 20.5312C59.1854 20.7135 59.3052 20.849 59.4562 20.9375C59.6073 21.0208 59.8 21.0625 60.0344 21.0625C60.2687 21.0625 60.4589 21.0208 60.6047 20.9375C60.7557 20.849 60.8755 20.7135 60.9641 20.5312C61.0578 20.3438 61.1229 20.099 61.1594 19.7969C61.1958 19.4896 61.2141 19.1172 61.2141 18.6797C61.2141 17.8047 61.1307 17.1927 60.9641 16.8438C60.8026 16.4896 60.4927 16.3125 60.0344 16.3125C59.8 16.3125 59.6073 16.3542 59.4562 16.4375C59.3052 16.5156 59.1854 16.6484 59.0969 16.8359C59.0083 17.0182 58.9432 17.263 58.9016 17.5703C58.8651 17.8724 58.8469 18.2422 58.8469 18.6797ZM71.0287 14.3906L70.8959 16.5391H71.0287C71.211 15.7161 71.5131 15.0938 71.935 14.6719C72.3621 14.25 72.9142 14.0391 73.5912 14.0391C73.9923 14.0391 74.336 14.1042 74.6225 14.2344C74.9142 14.3594 75.1485 14.5286 75.3256 14.7422C75.5027 14.9557 75.6303 15.2031 75.7084 15.4844C75.7866 15.7604 75.8256 16.0469 75.8256 16.3438C75.8256 16.5885 75.7892 16.8307 75.7162 17.0703C75.6433 17.3099 75.5261 17.526 75.3647 17.7188C75.2032 17.9115 74.9949 18.0677 74.7397 18.1875C74.4845 18.3021 74.1694 18.3594 73.7944 18.3594C73.2735 18.3594 72.8621 18.2266 72.56 17.9609C72.2631 17.6953 72.1147 17.375 72.1147 17C72.1147 16.8177 72.1355 16.6641 72.1772 16.5391C72.2189 16.4089 72.2605 16.3047 72.3022 16.2266C72.3491 16.1432 72.3803 16.0833 72.3959 16.0469C72.4116 16.0104 72.3933 15.9922 72.3412 15.9922C72.2319 15.9922 72.1121 16.1172 71.9819 16.3672C71.8569 16.6172 71.7944 17.0104 71.7944 17.5469V19.3359C71.7944 19.612 71.8412 19.8099 71.935 19.9297C72.034 20.0443 72.2215 20.1016 72.4975 20.1016H72.9662V23H66.3881V20.1016H66.8491C67.0626 20.1016 67.2241 20.0339 67.3334 19.8984C67.448 19.7578 67.5053 19.5911 67.5053 19.3984V17.9141C67.5053 17.6693 67.4324 17.5052 67.2866 17.4219C67.1459 17.3333 66.9845 17.2891 66.8022 17.2891H66.3881V14.3906H71.0287ZM79.9684 15.4766C79.7028 15.4766 79.4736 15.4974 79.2809 15.5391C79.0934 15.5755 78.932 15.6198 78.7966 15.6719C78.6611 15.724 78.5492 15.7839 78.4606 15.8516C78.3721 15.9141 78.294 15.9714 78.2262 16.0234L78.3044 16.1016C78.4033 16.0495 78.5101 15.9974 78.6247 15.9453C78.7445 15.8932 78.8955 15.8672 79.0778 15.8672C79.3851 15.8672 79.6507 15.9688 79.8747 16.1719C80.0986 16.3698 80.2106 16.6875 80.2106 17.125C80.2106 17.5417 80.0387 17.8776 79.695 18.1328C79.3565 18.3828 78.9007 18.5078 78.3278 18.5078C77.7809 18.5078 77.3434 18.3516 77.0153 18.0391C76.6924 17.7214 76.5309 17.2734 76.5309 16.6953C76.5309 16.3776 76.6195 16.0625 76.7966 15.75C76.9736 15.4323 77.2471 15.1484 77.6169 14.8984C77.9919 14.6484 78.4658 14.4427 79.0387 14.2812C79.6169 14.1198 80.3122 14.0391 81.1247 14.0391C82.0934 14.0391 82.8851 14.1302 83.4997 14.3125C84.1143 14.4948 84.5908 14.7292 84.9294 15.0156C85.2731 15.3021 85.5075 15.6276 85.6325 15.9922C85.7627 16.3568 85.8278 16.724 85.8278 17.0938V20.1484C85.8278 20.6224 85.8434 20.9453 85.8747 21.1172C85.9059 21.2839 86.0231 21.3672 86.2262 21.3672C86.3877 21.3672 86.4997 21.2917 86.5622 21.1406C86.6299 20.9844 86.6637 20.7188 86.6637 20.3438V19.3672H87.5544V20.3594C87.5544 20.8281 87.5153 21.2448 87.4372 21.6094C87.3591 21.9688 87.2106 22.2786 86.9919 22.5391C86.7731 22.7943 86.4762 22.987 86.1012 23.1172C85.7262 23.2526 85.2471 23.3203 84.6637 23.3203C84.1377 23.3203 83.7002 23.263 83.3512 23.1484C83.0075 23.0391 82.7341 22.901 82.5309 22.7344C82.3278 22.5677 82.182 22.3958 82.0934 22.2188C82.0101 22.0365 81.9684 21.875 81.9684 21.7344H81.8434C81.8122 21.9479 81.721 22.151 81.57 22.3438C81.4242 22.5365 81.2184 22.7083 80.9528 22.8594C80.6924 23.0052 80.3773 23.1224 80.0075 23.2109C79.6429 23.3047 79.2262 23.3516 78.7575 23.3516C78.3096 23.3516 77.9007 23.3073 77.5309 23.2188C77.1664 23.1354 76.8539 23.0026 76.5934 22.8203C76.3382 22.6328 76.1377 22.3932 75.9919 22.1016C75.8512 21.8047 75.7809 21.4531 75.7809 21.0469C75.7809 20.5469 75.9216 20.1536 76.2028 19.8672C76.4841 19.5755 76.8382 19.3464 77.2653 19.1797C77.6924 19.0078 78.1559 18.8698 78.6559 18.7656C79.1611 18.6562 79.6273 18.526 80.0544 18.375C80.4815 18.224 80.8356 18.0286 81.1169 17.7891C81.3981 17.5495 81.5387 17.2109 81.5387 16.7734C81.5387 16.3828 81.4164 16.0703 81.1716 15.8359C80.9268 15.5964 80.5257 15.4766 79.9684 15.4766ZM81.5387 18.8594C81.4242 19.026 81.2809 19.1615 81.1091 19.2656C80.9372 19.3646 80.7705 19.4635 80.6091 19.5625C80.4528 19.6562 80.3148 19.7708 80.195 19.9062C80.0804 20.0365 80.0231 20.2135 80.0231 20.4375C80.0231 20.6094 80.07 20.7656 80.1637 20.9062C80.2575 21.0417 80.4398 21.1094 80.7106 21.1094C80.9554 21.1094 81.1533 21.0156 81.3044 20.8281C81.4606 20.6354 81.5387 20.3672 81.5387 20.0234V18.8594ZM87.83 21.3516C87.83 21.0859 87.8821 20.8307 87.9863 20.5859C88.0956 20.3411 88.2363 20.1302 88.4081 19.9531C88.5852 19.776 88.7935 19.6354 89.0331 19.5312C89.2779 19.4219 89.5383 19.3672 89.8144 19.3672C90.08 19.3672 90.3352 19.4219 90.58 19.5312C90.8248 19.6354 91.0357 19.776 91.2128 19.9531C91.3899 20.1302 91.5305 20.3411 91.6347 20.5859C91.7441 20.8307 91.7988 21.0859 91.7988 21.3516C91.7988 21.6276 91.7441 21.8854 91.6347 22.125C91.5305 22.3646 91.3899 22.5729 91.2128 22.75C91.0357 22.9271 90.8248 23.0677 90.58 23.1719C90.3352 23.2812 90.08 23.3359 89.8144 23.3359C89.5383 23.3359 89.2779 23.2812 89.0331 23.1719C88.7935 23.0677 88.5852 22.9271 88.4081 22.75C88.2363 22.5729 88.0956 22.3646 87.9863 22.125C87.8821 21.8854 87.83 21.6276 87.83 21.3516ZM103.449 11.4922V19.4609C103.449 19.6745 103.507 19.8359 103.621 19.9453C103.741 20.0495 103.908 20.1016 104.121 20.1016H104.567V23H99.3166V21.5781H99.1916C99.1082 21.8021 98.9858 22.0156 98.8244 22.2188C98.6629 22.4219 98.465 22.6016 98.2306 22.7578C97.9962 22.9089 97.7176 23.0286 97.3947 23.1172C97.077 23.2109 96.715 23.2578 96.3087 23.2578C95.0327 23.2578 94.0666 22.8724 93.4103 22.1016C92.7541 21.3255 92.4259 20.1901 92.4259 18.6953C92.4259 17.2005 92.7775 16.0911 93.4806 15.3672C94.1837 14.6432 95.1499 14.2812 96.3791 14.2812C96.7072 14.2812 97.0015 14.3073 97.2619 14.3594C97.5223 14.4115 97.7593 14.4792 97.9728 14.5625C98.1864 14.6406 98.3895 14.7318 98.5822 14.8359C98.7749 14.9349 98.9676 15.0312 99.1603 15.125V14.8438C99.1603 14.5625 99.1108 14.3646 99.0119 14.25C98.9181 14.1302 98.7332 14.0703 98.4572 14.0703H98.0431V11.4922H103.449ZM96.8712 18.7734C96.8712 19.0547 96.8869 19.3203 96.9181 19.5703C96.9494 19.8203 97.0067 20.0391 97.09 20.2266C97.1785 20.4141 97.2931 20.5599 97.4337 20.6641C97.5796 20.7682 97.7697 20.8203 98.0041 20.8203C98.2384 20.8203 98.4311 20.7708 98.5822 20.6719C98.7332 20.5729 98.8504 20.4349 98.9337 20.2578C99.0223 20.0807 99.0822 19.8698 99.1134 19.625C99.1447 19.3802 99.1603 19.1198 99.1603 18.8438V17.0781C99.0301 16.9531 98.8556 16.849 98.6369 16.7656C98.4181 16.6771 98.2072 16.6328 98.0041 16.6328C97.7697 16.6328 97.5796 16.6927 97.4337 16.8125C97.2931 16.9271 97.1785 17.0833 97.09 17.2812C97.0067 17.4792 96.9494 17.7083 96.9181 17.9688C96.8869 18.2292 96.8712 18.4974 96.8712 18.7734ZM109.506 19.1797C109.527 19.9557 109.673 20.4922 109.944 20.7891C110.22 21.0807 110.613 21.2266 111.123 21.2266C111.295 21.2266 111.462 21.2031 111.623 21.1562C111.79 21.1042 111.944 21.0234 112.084 20.9141C112.225 20.7995 112.345 20.651 112.444 20.4688C112.548 20.2812 112.616 20.0469 112.647 19.7656H115.491C115.386 20.4375 115.194 21 114.912 21.4531C114.636 21.9062 114.28 22.2734 113.842 22.5547C113.405 22.8307 112.894 23.0286 112.311 23.1484C111.733 23.2734 111.087 23.3359 110.373 23.3359C109.639 23.3359 108.949 23.2422 108.303 23.0547C107.657 22.8672 107.09 22.5833 106.6 22.2031C106.116 21.8177 105.735 21.3359 105.459 20.7578C105.183 20.1745 105.045 19.4818 105.045 18.6797C105.045 17.9141 105.176 17.2422 105.436 16.6641C105.696 16.0859 106.061 15.6042 106.53 15.2188C107.004 14.8281 107.561 14.5339 108.202 14.3359C108.847 14.138 109.556 14.0391 110.327 14.0391C111.274 14.0391 112.09 14.1641 112.772 14.4141C113.454 14.6641 114.011 15.013 114.444 15.4609C114.876 15.9089 115.194 16.4479 115.397 17.0781C115.6 17.7083 115.696 18.4089 115.686 19.1797H109.506ZM110.662 16.1484C110.298 16.1484 110.027 16.2786 109.85 16.5391C109.678 16.7943 109.564 17.2188 109.506 17.8125H111.795C111.764 17.3021 111.655 16.8984 111.467 16.6016C111.28 16.2995 111.011 16.1484 110.662 16.1484ZM125.29 17.2422H123.141C122.99 16.8672 122.756 16.5703 122.438 16.3516C122.12 16.1328 121.79 16.0234 121.446 16.0234C121.212 16.0234 121.024 16.0677 120.883 16.1562C120.748 16.2396 120.68 16.3672 120.68 16.5391C120.68 16.7526 120.8 16.9141 121.04 17.0234C121.279 17.1276 121.579 17.2214 121.938 17.3047C122.303 17.388 122.696 17.4896 123.118 17.6094C123.54 17.724 123.93 17.8906 124.29 18.1094C124.654 18.3281 124.956 18.6224 125.196 18.9922C125.436 19.362 125.555 19.849 125.555 20.4531C125.555 20.9219 125.451 21.3307 125.243 21.6797C125.034 22.0286 124.748 22.3151 124.383 22.5391C124.024 22.763 123.6 22.9297 123.11 23.0391C122.62 23.1536 122.092 23.2109 121.524 23.2109C120.972 23.2109 120.449 23.1562 119.954 23.0469C119.464 22.9427 118.995 22.763 118.548 22.5078L118.469 23.0469H116.407V19.9141H118.548C118.751 20.3307 119.006 20.6536 119.313 20.8828C119.626 21.112 119.969 21.2266 120.344 21.2266C120.631 21.2266 120.834 21.1745 120.954 21.0703C121.079 20.9609 121.141 20.8411 121.141 20.7109C121.141 20.4974 121.021 20.3333 120.782 20.2188C120.542 20.099 120.245 19.9948 119.891 19.9062C119.542 19.8125 119.157 19.7109 118.735 19.6016C118.313 19.487 117.925 19.3229 117.571 19.1094C117.222 18.8958 116.928 18.6094 116.688 18.25C116.449 17.8854 116.329 17.4089 116.329 16.8203C116.329 16.3984 116.423 16.013 116.61 15.6641C116.803 15.3151 117.076 15.0208 117.43 14.7812C117.784 14.5417 118.201 14.3594 118.68 14.2344C119.159 14.1042 119.686 14.0391 120.258 14.0391C120.899 14.0391 121.475 14.112 121.985 14.2578C122.501 14.3984 122.886 14.5547 123.141 14.7266L123.219 14.1719H125.29V17.2422ZM131.839 14.3906V19.2578C131.839 19.6068 131.925 19.8359 132.097 19.9453C132.268 20.0495 132.487 20.1016 132.753 20.1016H132.964V23H126.386V20.1016H126.69C126.966 20.1016 127.169 20.0156 127.3 19.8438C127.435 19.6667 127.503 19.4766 127.503 19.2734V18.1719C127.503 17.8698 127.406 17.6484 127.214 17.5078C127.026 17.362 126.808 17.2891 126.558 17.2891H126.386V14.3906H131.839ZM127.378 12.4688C127.378 12.0208 127.547 11.638 127.886 11.3203C128.229 11.0026 128.716 10.8438 129.347 10.8438C129.987 10.8438 130.479 11.0026 130.823 11.3203C131.172 11.638 131.347 12.0208 131.347 12.4688C131.347 12.9271 131.172 13.3151 130.823 13.6328C130.479 13.9453 129.987 14.1016 129.347 14.1016C128.716 14.1016 128.229 13.9453 127.886 13.6328C127.547 13.3151 127.378 12.9271 127.378 12.4688ZM144.669 24.4219C144.669 25.3073 144.159 25.9844 143.138 26.4531C142.122 26.9219 140.651 27.1562 138.724 27.1562C138.026 27.1562 137.346 27.1458 136.685 27.125C136.023 27.1042 135.437 27.0339 134.927 26.9141C134.416 26.7995 134.005 26.6146 133.693 26.3594C133.385 26.1042 133.232 25.7422 133.232 25.2734C133.232 24.8984 133.351 24.5911 133.591 24.3516C133.831 24.112 134.088 23.9219 134.364 23.7812C134.026 23.5781 133.794 23.3516 133.669 23.1016C133.549 22.8516 133.489 22.5781 133.489 22.2812C133.489 21.9271 133.617 21.5885 133.872 21.2656C134.127 20.9375 134.495 20.6198 134.974 20.3125C134.505 20.0052 134.146 19.6302 133.896 19.1875C133.646 18.7448 133.521 18.2188 133.521 17.6094C133.521 17.0208 133.643 16.5052 133.888 16.0625C134.133 15.6198 134.484 15.25 134.943 14.9531C135.401 14.6562 135.948 14.4297 136.583 14.2734C137.219 14.1172 137.932 14.0391 138.724 14.0391C139.573 14.0391 140.338 14.1302 141.021 14.3125C141.708 14.4948 142.291 14.7708 142.771 15.1406C142.864 15.0156 142.992 14.8932 143.153 14.7734C143.289 14.6797 143.461 14.5938 143.669 14.5156C143.877 14.4323 144.133 14.3906 144.435 14.3906H145.153V17.2891H144.638C144.414 17.2891 144.242 17.3516 144.122 17.4766C144.008 17.5964 143.94 17.7135 143.919 17.8281C143.737 18.9271 143.206 19.7656 142.325 20.3438C141.445 20.9219 140.245 21.2109 138.724 21.2109C137.87 21.2109 137.096 21.1198 136.403 20.9375C136.294 21.0104 136.239 21.1016 136.239 21.2109C136.239 21.4141 136.359 21.5573 136.599 21.6406C136.838 21.724 137.156 21.7812 137.552 21.8125C137.948 21.8385 138.398 21.849 138.903 21.8438C139.409 21.8333 139.924 21.8411 140.45 21.8672C140.982 21.888 141.5 21.9349 142.005 22.0078C142.515 22.0807 142.966 22.2109 143.357 22.3984C143.752 22.5859 144.07 22.8411 144.31 23.1641C144.549 23.4922 144.669 23.9115 144.669 24.4219ZM137.63 17.6094C137.63 18.151 137.706 18.5703 137.857 18.8672C138.008 19.1589 138.297 19.3047 138.724 19.3047C139.156 19.3047 139.448 19.1589 139.599 18.8672C139.75 18.5703 139.825 18.151 139.825 17.6094C139.825 17.0729 139.75 16.6641 139.599 16.3828C139.448 16.1016 139.156 15.9609 138.724 15.9609C138.297 15.9609 138.008 16.1016 137.857 16.3828C137.706 16.6641 137.63 17.0729 137.63 17.6094ZM139.075 24.5391C138.518 24.5391 138.013 24.5234 137.56 24.4922C137.107 24.4661 136.698 24.4271 136.333 24.375C136.281 24.4635 136.255 24.5547 136.255 24.6484C136.255 25.0234 136.458 25.2682 136.864 25.3828C137.271 25.5026 137.804 25.5625 138.466 25.5625C139.351 25.5625 139.997 25.5078 140.403 25.3984C140.815 25.2943 141.021 25.1458 141.021 24.9531C141.021 24.8542 140.961 24.7786 140.841 24.7266C140.726 24.6745 140.573 24.6328 140.38 24.6016C140.193 24.5703 139.984 24.5521 139.755 24.5469C139.526 24.5417 139.299 24.5391 139.075 24.5391ZM152.921 18.0078C152.921 17.8047 152.895 17.6432 152.843 17.5234C152.796 17.3984 152.734 17.3047 152.656 17.2422C152.583 17.1745 152.499 17.1302 152.406 17.1094C152.312 17.0885 152.221 17.0781 152.132 17.0781C151.794 17.0781 151.541 17.1771 151.374 17.375C151.208 17.5729 151.124 17.8542 151.124 18.2188V19.3359C151.124 19.612 151.171 19.8099 151.265 19.9297C151.364 20.0443 151.551 20.1016 151.827 20.1016H152.249V23H145.718V20.1016H146.179C146.393 20.1016 146.554 20.0339 146.663 19.8984C146.778 19.7578 146.835 19.5911 146.835 19.3984V17.9141C146.835 17.6693 146.762 17.5052 146.617 17.4219C146.476 17.3333 146.314 17.2891 146.132 17.2891H145.718V14.3906H150.359L150.195 16.5391H150.327C150.442 15.737 150.794 15.1198 151.382 14.6875C151.971 14.2552 152.77 14.0391 153.781 14.0391C154.494 14.0391 155.075 14.1406 155.523 14.3438C155.971 14.5469 156.317 14.8047 156.562 15.1172C156.812 15.4245 156.981 15.7604 157.07 16.125C157.158 16.4844 157.202 16.8229 157.202 17.1406V19.3359C157.202 19.612 157.249 19.8099 157.343 19.9297C157.442 20.0443 157.63 20.1016 157.906 20.1016H158.327V23H152.921V18.0078Z" fill="#1B344A"/>
<path d="M0.5 25L132 25" stroke="#1B344A"/>
<path d="M145.7 25H158.3" stroke="#1B344A"/>
</svg>
